{
    "asset" : {
        "generator" : "Khronos glTF Blender I/O v1.5.17",
        "version" : "2.0"
    },
    "scene" : 0,
    "scenes" : [
        {
            "name" : "Scene",
            "nodes" : [
                0,
                1
            ]
        }
    ],
    "nodes" : [
        {
            "mesh" : 0,
            "name" : "Walls"
        },
        {
            "mesh" : 1,
            "name" : "Floors"
        }
    ],
    "meshes" : [
        {
            "name" : "Icosphere",
            "primitives" : [
                {
                    "attributes" : {
                        "POSITION" : 0,
                        "NORMAL" : 1,
                        "TEXCOORD_0" : 2
                    },
                    "indices" : 3
                }
            ]
        },
        {
            "name" : "Icosphere.001",
            "primitives" : [
                {
                    "attributes" : {
                        "POSITION" : 4,
                        "NORMAL" : 5,
                        "TEXCOORD_0" : 6
                    },
                    "indices" : 7
                }
            ]
        }
    ],
    "accessors" : [
        {
            "bufferView" : 0,
            "componentType" : 5126,
            "count" : 984,
            "max" : [
                51.51353454589844,
                50.844051361083984,
                51.51353454589844
            ],
            "min" : [
                -51.51353454589844,
                -0.6695823669433594,
                -51.51353454589844
            ],
            "type" : "VEC3"
        },
        {
            "bufferView" : 1,
            "componentType" : 5126,
            "count" : 984,
            "type" : "VEC3"
        },
        {
            "bufferView" : 2,
            "componentType" : 5126,
            "count" : 984,
            "type" : "VEC2"
        },
        {
            "bufferView" : 3,
            "componentType" : 5123,
            "count" : 1008,
            "type" : "SCALAR"
        },
        {
            "bufferView" : 4,
            "componentType" : 5126,
            "count" : 40,
            "max" : [
                51.51353454589844,
                3.1486168154515326e-05,
                51.51353454589844
            ],
            "min" : [
                -51.51353454589844,
                -0.6695823669433594,
                -51.51353454589844
            ],
            "type" : "VEC3"
        },
        {
            "bufferView" : 5,
            "componentType" : 5126,
            "count" : 40,
            "type" : "VEC3"
        },
        {
            "bufferView" : 6,
            "componentType" : 5126,
            "count" : 40,
            "type" : "VEC2"
        },
        {
            "bufferView" : 7,
            "componentType" : 5123,
            "count" : 108,
            "type" : "SCALAR"
        }
    ],
    "bufferViews" : [
        {
            "buffer" : 0,
            "byteLength" : 11808,
            "byteOffset" : 0
        },
        {
            "buffer" : 0,
            "byteLength" : 11808,
            "byteOffset" : 11808
        },
        {
            "buffer" : 0,
            "byteLength" : 7872,
            "byteOffset" : 23616
        },
        {
            "buffer" : 0,
            "byteLength" : 2016,
            "byteOffset" : 31488
        },
        {
            "buffer" : 0,
            "byteLength" : 480,
            "byteOffset" : 33504
        },
        {
            "buffer" : 0,
            "byteLength" : 480,
            "byteOffset" : 33984
        },
        {
            "buffer" : 0,
            "byteLength" : 320,
            "byteOffset" : 34464
        },
        {
            "buffer" : 0,
            "byteLength" : 216,
            "byteOffset" : 34784
        }
    ],
    "buffers" : [
        {
            "byteLength" : 35000,
            "uri" : "data:application/octet-stream;base64,"
        }
    ]
}
