{
  "asset": {
    "version": "2.0",
    "generator": "THREE.GLTFExporter"
  },
  "scenes": [
    {
      "name": "Scene",
      "nodes": [
        2
      ]
    }
  ],
  "scene": 0,
  "nodes": [
    {
      "name": "Walls",
      "mesh": 0
    },
    {
      "name": "Floor",
      "mesh": 1
    },
    {
      "matrix": [
        1.8353592157363892,
        0,
        0,
        0,
        0,
        1.8353592157363892,
        0,
        0,
        0,
        0,
        1.8353592157363892,
        0,
        0,
        0,
        0,
        1
      ],
      "name": "Dome",
      "extras": {
        "name": "Icosphere"
      },
      "children": [
        0,
        1
      ]
    }
  ],
  "bufferViews": [
    {
      "buffer": 0,
      "byteOffset": 0,
      "byteLength": 11784,
      "target": 34962,
      "byteStride": 12
    },
    {
      "buffer": 0,
      "byteOffset": 11784,
      "byteLength": 11784,
      "target": 34962,
      "byteStride": 12
    },
    {
      "buffer": 0,
      "byteOffset": 23568,
      "byteLength": 7856,
      "target": 34962,
      "byteStride": 8
    },
    {
      "buffer": 0,
      "byteOffset": 31424,
      "byteLength": 1968,
      "target": 34963
    },
    {
      "buffer": 0,
      "byteOffset": 33392,
      "byteLength": 1296,
      "target": 34962,
      "byteStride": 12
    },
    {
      "buffer": 0,
      "byteOffset": 34688,
      "byteLength": 1296,
      "target": 34962,
      "byteStride": 12
    },
    {
      "buffer": 0,
      "byteOffset": 35984,
      "byteLength": 864,
      "target": 34962,
      "byteStride": 8
    },
    {
      "buffer": 0,
      "byteOffset": 36848,
      "byteLength": 216,
      "target": 34963
    }
  ],
  "buffers": [
    {
      "byteLength": 37064,
      "uri": "data:application/octet-stream;base64,"
    }
  ],
  "accessors": [
    {
      "bufferView": 0,
      "componentType": 5126,
      "count": 982,
      "max": [
        51.90687942504883,
        51.06340789794922,
        51.90687942504883
      ],
      "min": [
        -51.90687561035156,
        -0.8435707092285156,
        -51.90687942504883
      ],
      "type": "VEC3"
    },
    {
      "bufferView": 1,
      "componentType": 5126,
      "count": 982,
      "max": [
        0.9854123592376709,
        0.993036150932312,
        0.9846491813659668
      ],
      "min": [
        -0.9854123592376709,
        -0.9877859950065613,
        -0.984649121761322
      ],
      "type": "VEC3"
    },
    {
      "bufferView": 2,
      "componentType": 5126,
      "count": 982,
      "max": [
        1,
        0.7638090252876282
      ],
      "min": [
        0.04545449838042259,
        0.5276179909706116
      ],
      "type": "VEC2"
    },
    {
      "bufferView": 3,
      "componentType": 5123,
      "count": 984,
      "max": [
        981
      ],
      "min": [
        0
      ],
      "type": "SCALAR"
    },
    {
      "bufferView": 4,
      "componentType": 5126,
      "count": 108,
      "max": [
        51.90687942504883,
        0.000031486168154515326,
        51.90687942504883
      ],
      "min": [
        -51.90687561035156,
        -0.8435707092285156,
        -51.90687942504883
      ],
      "type": "VEC3"
    },
    {
      "bufferView": 5,
      "componentType": 5126,
      "count": 108,
      "max": [
        0.000031616964406566694,
        1,
        0.00002285075606778264
      ],
      "min": [
        -0.000031616575142834336,
        -1,
        -0.00002288099130964838
      ],
      "type": "VEC3"
    },
    {
      "bufferView": 6,
      "componentType": 5126,
      "count": 108,
      "max": [
        0,
        1
      ],
      "min": [
        0,
        1
      ],
      "type": "VEC2"
    },
    {
      "bufferView": 7,
      "componentType": 5123,
      "count": 108,
      "max": [
        107
      ],
      "min": [
        0
      ],
      "type": "SCALAR"
    }
  ],
  "materials": [
    {
      "pbrMetallicRoughness": {
        "baseColorFactor": [
          0.12941176470588237,
          0.054901960784313725,
          0.5058823529411764,
          0.5
        ],
        "metallicFactor": 0,
        "roughnessFactor": 0.9
      },
      "alphaMode": "BLEND",
      "doubleSided": true,
      "name": "Walls_mat",
      "extensions": {
        "KHR_materials_unlit": {}
      }
    },
    {
      "pbrMetallicRoughness": {
        "baseColorFactor": [
          0.07058823529411765,
          0.07058823529411765,
          0.07058823529411765,
          1
        ],
        "metallicFactor": 0,
        "roughnessFactor": 0.9
      },
      "doubleSided": true,
      "name": "Floor_mat",
      "extensions": {
        "KHR_materials_unlit": {}
      }
    }
  ],
  "meshes": [
    {
      "primitives": [
        {
          "mode": 4,
          "attributes": {
            "POSITION": 0,
            "NORMAL": 1,
            "TEXCOORD_0": 2
          },
          "indices": 3,
          "material": 0
        }
      ]
    },
    {
      "primitives": [
        {
          "mode": 4,
          "attributes": {
            "POSITION": 4,
            "NORMAL": 5,
            "TEXCOORD_0": 6
          },
          "indices": 7,
          "material": 1
        }
      ]
    }
  ],
  "extensionsUsed": [
    "KHR_materials_unlit"
  ]
}